# xmcd
#
# Track frame offsets:
#	150
#	27285
#	49107
#	77275
#	104142
#	134552
#	152797
#	168532
#	188434
#	205717
#	239187
#	257100
#	273460
#	299390
#
# Disc length: 4364 seconds
#
# Revision: 0
# Processed by: cddbd v1.4PL0 Copyright (c) Steve Scherf et al.
# Submitted via: EasyCDDAExtractor 4.6.9.1
#
DISCID=cd110a0e
DTITLE=Joe Satriani
DYEAR=1996
DGENRE=Blues
TTITLE0=Cool #9
TTITLE1=If
TTITLE2=Down, down, down
TTITLE3=Liminouse Flesh Giants
TTITLE4=S.M.F.
TTITLE5=Look my way
TTITLE6=Home
TTITLE7=Moroccan sunset
TTITLE8=Killer bee bop
TTITLE9=Slow down blues
TTITLE10=(You`re) My World
TTITLE11=Sittin` round
TTITLE12=Cryin
TTITLE13=Rubina`s blue scy happiness
EXTD=
EXTT0=
EXTT1=
EXTT2=
EXTT3=
EXTT4=
EXTT5=
EXTT6=
EXTT7=
EXTT8=
EXTT9=
EXTT10=
EXTT11=
EXTT12=
EXTT13=
PLAYORDER=
